<svg xmlns="http://www.w3.org/2000/svg" width="198" height="159" viewBox="0 0 198 159"><defs><style>.cls-1{fill:#eec025;}.cls-2{fill:#f3ece1;}</style></defs><title>to_alan_website_size</title><g id="milestone"><polygon class="cls-1" points="183.219 97.002 94.108 97.002 4.996 97.002 13.068 87.172 4.996 77.347 94.108 77.347 183.219 77.347 191.287 87.172 183.219 97.002"/><path class="cls-2" d="M93.3866,87.1723a4.7571,4.7571,0,1,1,4.7554,4.7548A4.7555,4.7555,0,0,1,93.3866,87.1723Z"/><path class="cls-1" d="M55.2451,58.7383H47.24q.0264-1.0986.0791-4.4727t.0518-8.084q0-1.3329-.0127-3.205-.0132-1.8691-.0391-3.4395l-.1308-.0781q-1.1235.6034-3.1729,1.793T39.877,43.6191L37.17,38.9629q4.0254-2.329,7.8809-4.67T50.0039,31.35l5.2412,3.7149q-.0264,3.5829-.0654,6.9589-.04,3.3721-.0391,4.6817,0,2.9561.0391,6.9453T55.2451,58.7383Z"/><path class="cls-1" d="M90.166,43.5391a14.7481,14.7481,0,0,1-1.0439,5.6386,23.7491,23.7491,0,0,1-3.3965,5.5313q-2.4288,3.0879-6.8555,7.7031-4.4281,4.6172-5.9424,6.1348L65.9023,64.498q2.4552-2.3788,4.8331-4.7187t3.998-3.9375l-.0264-.1035a20.8205,20.8205,0,0,1-4.1728-1.0723,18.2812,18.2812,0,0,1-3.9883-1.9629,11.7957,11.7957,0,0,1-3.6494-3.8086,10.2027,10.2027,0,0,1-1.2686-5.2187,10.52,10.52,0,0,1,1.084-4.7637,13.0218,13.0218,0,0,1,2.8877-3.82,13.6245,13.6245,0,0,1,4.64-2.76,16.683,16.683,0,0,1,5.7363-.9824,18.0844,18.0844,0,0,1,5.7754.877A13.7055,13.7055,0,0,1,86.377,34.83a11.7869,11.7869,0,0,1,2.73,3.6347A11.3463,11.3463,0,0,1,90.166,43.5391Zm-8.0039.76a8.7479,8.7479,0,0,0-.4453-2.8125,6.7611,6.7611,0,0,0-1.4121-2.3925,5.1475,5.1475,0,0,0-2.0274-1.3614,6.7894,6.7894,0,0,0-2.3935-.4453,6.2486,6.2486,0,0,0-2.5108.4981A6.382,6.382,0,0,0,70.09,41.4434a7.9179,7.9179,0,0,0-.458,2.6386,6.5742,6.5742,0,0,0,1.02,3.6465,7.7116,7.7116,0,0,0,2.7207,2.5488,13.4239,13.4239,0,0,0,2.629,1.2266,21.8443,21.8443,0,0,0,2.7851.7324,14.9081,14.9081,0,0,0,2.459-3.6172A9.9077,9.9077,0,0,0,82.1621,44.2988Z"/><path class="cls-1" d="M122.916,49.32a8.7172,8.7172,0,0,1-3.959,7.377,16.6776,16.6776,0,0,1-9.9961,2.8515q-6.2988,0-10.18-2.7461a8.3935,8.3935,0,0,1-3.88-7.1425,7.7651,7.7651,0,0,1,1.49-4.6563,18.8363,18.8363,0,0,1,4.3945-4.1328V40.82a11.4263,11.4263,0,0,1-3.5439-3.166A7.8194,7.8194,0,0,1,96,33.0762,7.92,7.92,0,0,1,99.7236,26.42a15.51,15.51,0,0,1,9.2373-2.6562q5.88,0,9.4473,2.4863a7.5607,7.5607,0,0,1,3.5664,6.4609,8.1969,8.1969,0,0,1-1.3057,4.5371,14.0665,14.0665,0,0,1-3.6562,3.7286v.0527a11.8336,11.8336,0,0,1,4.415,3.3867A7.9154,7.9154,0,0,1,122.916,49.32Zm-8.0039-.1816a3.9467,3.9467,0,0,0-.7461-2.3692,6.8093,6.8093,0,0,0-2.3672-1.8965q-.9682-.4687-2.4717-1.0332-1.5043-.5595-2.8642-1.0058a11.1212,11.1212,0,0,0-2.707,2.7715,5.9284,5.9284,0,0,0-1.0079,3.35,4.406,4.406,0,0,0,1.753,3.5312,6.5,6.5,0,0,0,4.2636,1.4375,7.3058,7.3058,0,0,0,4.5127-1.2422A4.1858,4.1858,0,0,0,114.9121,49.1387Zm-.6807-15.1719a4.34,4.34,0,0,0-1.4218-3.4277,5.4535,5.4535,0,0,0-3.7442-1.2559,5.9349,5.9349,0,0,0-3.666,1.125,3.6734,3.6734,0,0,0-1.5,3.1133,3.2118,3.2118,0,0,0,.7442,2.1719,6.2167,6.2167,0,0,0,2.0507,1.49,18.4805,18.4805,0,0,0,2.1162.9277q1.2789.4863,2.56.877a9.7317,9.7317,0,0,0,2.0811-2.3145A4.9891,4.9891,0,0,0,114.2314,33.9668Z"/><path class="cls-1" d="M157.498,45.4492a14.6493,14.6493,0,0,1-1.1513,5.7949,12.5971,12.5971,0,0,1-3.4268,4.668,13.6382,13.6382,0,0,1-4.6689,2.6953,18.4086,18.4086,0,0,1-11.5879.0117,14.0149,14.0149,0,0,1-4.7217-2.68,13.7726,13.7726,0,0,1-3.4014-4.6836,15.2913,15.2913,0,0,1-.13-11.4434,13.168,13.168,0,0,1,3.1386-4.4863,13.5979,13.5979,0,0,1,4.8-2.9434,17.4529,17.4529,0,0,1,6.0557-1.0332,17.7772,17.7772,0,0,1,5.99.9688,13.9048,13.9048,0,0,1,4.7608,2.8242,13.3011,13.3011,0,0,1,3.2441,4.5644A14.5064,14.5064,0,0,1,157.498,45.4492Zm-8.0048.1563a10.8931,10.8931,0,0,0-.6016-3.6094,7.1832,7.1832,0,0,0-1.8047-2.877,6.2314,6.2314,0,0,0-2.0273-1.3476,6.8,6.8,0,0,0-2.6289-.4844,6.6332,6.6332,0,0,0-2.7471.5117,7.0306,7.0306,0,0,0-2.0137,1.3731,6.8957,6.8957,0,0,0-1.6875,2.7461,10.296,10.296,0,0,0-.6142,3.4785,10.6693,10.6693,0,0,0,.5752,3.57,7.1184,7.1184,0,0,0,1.8837,2.8652,6.3072,6.3072,0,0,0,2.001,1.3086,6.7076,6.7076,0,0,0,2.5762.4707,6.9123,6.9123,0,0,0,2.6025-.4707,6.471,6.471,0,0,0,2.0274-1.2832,7.555,7.555,0,0,0,1.8183-2.76A9.4763,9.4763,0,0,0,149.4932,45.6055Z"/></g></svg>