<svg xmlns="http://www.w3.org/2000/svg" width="198" height="159" viewBox="0 0 198 159"><defs><style>.cls-1{fill:#86c4c8;}.cls-2{fill:#f3ece1;}</style></defs><title>to_alan_website_size</title><g id="milestone"><polygon class="cls-1" points="185.061 97.002 95.952 97.002 6.842 97.002 14.913 87.172 6.842 77.347 95.952 77.347 185.061 77.347 193.131 87.172 185.061 97.002"/><path class="cls-2" d="M95.2317,87.1723a4.7559,4.7559,0,1,1,4.7555,4.7548A4.7555,4.7555,0,0,1,95.2317,87.1723Z"/><path class="cls-1" d="M59.2866,140.8711H51.2817q.0264-1.0986.0791-4.4727t.0518-8.082q0-1.3359-.0127-3.2051c-.0088-1.2461-.0225-2.3945-.0391-3.4394l-.1308-.0781q-1.1235.6-3.1729,1.791t-4.1386,2.3672l-2.7071-4.6563q4.0254-2.3262,7.8809-4.67,3.8554-2.3379,4.9531-2.9414l5.2412,3.7148q-.0264,3.5831-.0654,6.957t-.0391,4.6817q0,2.9589.0391,6.9453Q59.2608,139.7735,59.2866,140.8711Z"/><path class="cls-1" d="M94.2075,125.6738a14.7314,14.7314,0,0,1-1.0439,5.6367,23.7183,23.7183,0,0,1-3.3965,5.5333q-2.4288,3.0849-6.8555,7.7031t-5.9424,6.1347l-7.0254-4.0488q2.4552-2.3818,4.8331-4.7207,2.3774-2.3408,3.998-3.9355l-.0264-.1055a20.8205,20.8205,0,0,1-4.1728-1.0723,18.2812,18.2812,0,0,1-3.9883-1.9629,11.7714,11.7714,0,0,1-3.6494-3.8066,10.2154,10.2154,0,0,1-1.2686-5.2207,10.5108,10.5108,0,0,1,1.084-4.7617,13.0218,13.0218,0,0,1,2.8877-3.82,13.5994,13.5994,0,0,1,4.64-2.7618,16.6819,16.6819,0,0,1,5.7363-.98,18.0852,18.0852,0,0,1,5.7754.875,13.7735,13.7735,0,0,1,4.626,2.6035,11.817,11.817,0,0,1,2.73,3.6367A11.34,11.34,0,0,1,94.2075,125.6738Zm-8.0039.7578a8.7356,8.7356,0,0,0-.4453-2.8105,6.7683,6.7683,0,0,0-1.4121-2.3945,5.1643,5.1643,0,0,0-2.0274-1.3594,6.7889,6.7889,0,0,0-2.3935-.4453,6.2814,6.2814,0,0,0-2.5107.4961,6.3968,6.3968,0,0,0-3.2833,3.6582,7.9372,7.9372,0,0,0-.458,2.6406,6.5628,6.5628,0,0,0,1.02,3.6445,7.7122,7.7122,0,0,0,2.7208,2.5489,13.437,13.437,0,0,0,2.6289,1.2285,21.5368,21.5368,0,0,0,2.7851.73,14.8978,14.8978,0,0,0,2.459-3.6152A9.9166,9.9166,0,0,0,86.2036,126.4316Z"/><path class="cls-1" d="M124.5776,119.1348Q118.56,129.8076,113.4214,138.91q-5.14,9.1025-5.8467,10.41l-6.9551-3.1641q4.8414-8.2938,8.9893-15.6816,4.1484-7.3916,5.4834-9.7441l-.0264-.08q-1.23,0-2.3164.0137t-2.3164.0136q-4.1089,0-8.27.0528t-4.6592.0507V114.4q.34,0,3.9375.0117,3.5962.0147,7.6514.0137,2.6938,0,6.6963-.0137,4.0019-.0117,5.3359-.0117Z"/><path class="cls-1" d="M157.145,127.584a14.6492,14.6492,0,0,1-1.1513,5.793,12.62,12.62,0,0,1-3.4268,4.67,13.6346,13.6346,0,0,1-4.669,2.6933,18.4271,18.4271,0,0,1-11.5878.0137,14.0529,14.0529,0,0,1-4.7217-2.6816,13.7463,13.7463,0,0,1-3.4014-4.6817,15.2969,15.2969,0,0,1-.13-11.4453,13.1636,13.1636,0,0,1,3.1387-4.4844,13.5977,13.5977,0,0,1,4.8-2.9433,17.406,17.406,0,0,1,6.0557-1.0332,17.7779,17.7779,0,0,1,5.99.9668,13.941,13.941,0,0,1,4.7607,2.8261,13.265,13.265,0,0,1,3.2442,4.5645A14.4929,14.4929,0,0,1,157.145,127.584Zm-8.0049.1562a10.8782,10.8782,0,0,0-.6015-3.6093,7.1769,7.1769,0,0,0-1.8047-2.8789,6.2255,6.2255,0,0,0-2.0274-1.3458,6.8008,6.8008,0,0,0-2.6289-.4843,6.6343,6.6343,0,0,0-2.747.51,7.0711,7.0711,0,0,0-2.0137,1.3731,6.89,6.89,0,0,0-1.6875,2.748,10.2941,10.2941,0,0,0-.6143,3.4785,10.6779,10.6779,0,0,0,.5752,3.57,7.112,7.112,0,0,0,1.8838,2.8632,6.3072,6.3072,0,0,0,2.001,1.3086,6.67,6.67,0,0,0,2.5762.4707,6.8736,6.8736,0,0,0,2.6025-.4707,6.466,6.466,0,0,0,2.0274-1.2812,7.5882,7.5882,0,0,0,1.8183-2.76A9.4907,9.4907,0,0,0,149.14,127.74Z"/></g></svg>