<svg xmlns="http://www.w3.org/2000/svg" width="198" height="159" viewBox="0 0 198 159"><defs><style>.cls-1{fill:#e86a58;}.cls-2{fill:#f3ece1;}</style></defs><title>to_alan_website_size</title><g id="milestone"><polygon class="cls-1" points="181.368 97.002 92.255 97.002 3.152 97.002 11.219 87.172 3.152 77.347 92.255 77.347 181.368 77.347 189.437 87.172 181.368 97.002"/><path class="cls-2" d="M91.5427,87.1723a4.7556,4.7556,0,1,1,4.7548,4.7548A4.7554,4.7554,0,0,1,91.5427,87.1723Z"/><path class="cls-1" d="M54.7388,140.8711H46.7339q.0264-1.0986.0791-4.4727t.0517-8.082q0-1.3359-.0126-3.2051c-.0088-1.2461-.0225-2.3945-.0391-3.4394l-.1309-.0781q-1.1235.6-3.1728,1.791-2.0508,1.1894-4.1387,2.3672l-2.707-4.6563q4.0254-2.3262,7.8808-4.67,3.8554-2.3379,4.9532-2.9414l5.2412,3.7148q-.0264,3.5831-.0655,6.957t-.039,4.6817q0,2.9589.039,6.9453Q54.7129,139.7735,54.7388,140.8711Z"/><path class="cls-1" d="M89.66,125.6738a14.7314,14.7314,0,0,1-1.044,5.6367,23.7148,23.7148,0,0,1-3.3965,5.5333q-2.4287,3.0849-6.8554,7.7031-4.4283,4.6172-5.9424,6.1347l-7.0254-4.0488q2.4551-2.3818,4.833-4.7207,2.3775-2.3408,3.9981-3.9355l-.0264-.1055a20.82,20.82,0,0,1-4.1729-1.0723,18.2781,18.2781,0,0,1-3.9882-1.9629,11.7717,11.7717,0,0,1-3.6495-3.8066,10.2164,10.2164,0,0,1-1.2685-5.2207,10.51,10.51,0,0,1,1.084-4.7617,13.0183,13.0183,0,0,1,2.8877-3.82,13.598,13.598,0,0,1,4.64-2.7618,16.6823,16.6823,0,0,1,5.7363-.98,18.0852,18.0852,0,0,1,5.7754.875,13.7735,13.7735,0,0,1,4.626,2.6035A11.8157,11.8157,0,0,1,88.6011,120.6,11.3416,11.3416,0,0,1,89.66,125.6738Zm-8.0039.7578a8.7357,8.7357,0,0,0-.4454-2.8105,6.7653,6.7653,0,0,0-1.4121-2.3945,5.1639,5.1639,0,0,0-2.0273-1.3594,6.79,6.79,0,0,0-2.3936-.4453,6.2814,6.2814,0,0,0-2.5107.4961,6.397,6.397,0,0,0-3.2832,3.6582,7.9347,7.9347,0,0,0-.458,2.6406,6.562,6.562,0,0,0,1.02,3.6445,7.7119,7.7119,0,0,0,2.7207,2.5489,13.44,13.44,0,0,0,2.6289,1.2285,21.5383,21.5383,0,0,0,2.7852.73,14.8945,14.8945,0,0,0,2.4589-3.6152A9.9152,9.9152,0,0,0,81.6558,126.4316Z"/><path class="cls-1" d="M122.5405,125.6738a14.7314,14.7314,0,0,1-1.0439,5.6367,23.7183,23.7183,0,0,1-3.3965,5.5333q-2.4287,3.0849-6.8555,7.7031t-5.9424,6.1347l-7.0253-4.0488q2.4551-2.3818,4.833-4.7207,2.3774-2.3408,3.998-3.9355l-.0264-.1055a20.8205,20.8205,0,0,1-4.1728-1.0723,18.2812,18.2812,0,0,1-3.9883-1.9629,11.7714,11.7714,0,0,1-3.6494-3.8066,10.2154,10.2154,0,0,1-1.2686-5.2207,10.5108,10.5108,0,0,1,1.084-4.7617,13.0218,13.0218,0,0,1,2.8877-3.82,13.5994,13.5994,0,0,1,4.64-2.7618,16.6819,16.6819,0,0,1,5.7363-.98,18.0852,18.0852,0,0,1,5.7754.875,13.7735,13.7735,0,0,1,4.626,2.6035,11.8155,11.8155,0,0,1,2.73,3.6367A11.34,11.34,0,0,1,122.5405,125.6738Zm-8.0039.7578a8.7356,8.7356,0,0,0-.4453-2.8105,6.7683,6.7683,0,0,0-1.4121-2.3945,5.1647,5.1647,0,0,0-2.0273-1.3594,6.79,6.79,0,0,0-2.3936-.4453,6.2814,6.2814,0,0,0-2.5107.4961,6.397,6.397,0,0,0-3.2832,3.6582,7.9348,7.9348,0,0,0-.4581,2.6406,6.5621,6.5621,0,0,0,1.0206,3.6445,7.711,7.711,0,0,0,2.7207,2.5489,13.44,13.44,0,0,0,2.6289,1.2285,21.5368,21.5368,0,0,0,2.7851.73,14.895,14.895,0,0,0,2.459-3.6152A9.9152,9.9152,0,0,0,114.5366,126.4316Z"/><path class="cls-1" d="M157.0962,127.584a14.6476,14.6476,0,0,1-1.1514,5.793,12.6213,12.6213,0,0,1-3.4267,4.67,13.6356,13.6356,0,0,1-4.669,2.6933,18.4274,18.4274,0,0,1-11.5879.0137,14.0525,14.0525,0,0,1-4.7216-2.6816,13.7436,13.7436,0,0,1-3.4014-4.6817,15.2956,15.2956,0,0,1-.13-11.4453,13.1636,13.1636,0,0,1,3.1387-4.4844,13.5977,13.5977,0,0,1,4.8-2.9433,17.4054,17.4054,0,0,1,6.0556-1.0332,17.7784,17.7784,0,0,1,5.99.9668,13.941,13.941,0,0,1,4.7607,2.8261,13.2663,13.2663,0,0,1,3.2442,4.5645A14.4929,14.4929,0,0,1,157.0962,127.584Zm-8.0049.1562a10.8757,10.8757,0,0,0-.6016-3.6093,7.1756,7.1756,0,0,0-1.8046-2.8789,6.2255,6.2255,0,0,0-2.0274-1.3458,6.8011,6.8011,0,0,0-2.6289-.4843,6.6348,6.6348,0,0,0-2.7471.51,7.0693,7.0693,0,0,0-2.0136,1.3731,6.8879,6.8879,0,0,0-1.6875,2.748,10.2941,10.2941,0,0,0-.6143,3.4785,10.6779,10.6779,0,0,0,.5752,3.57,7.1109,7.1109,0,0,0,1.8838,2.8632,6.3072,6.3072,0,0,0,2.001,1.3086,6.67,6.67,0,0,0,2.5761.4707,6.8742,6.8742,0,0,0,2.6026-.4707,6.4667,6.4667,0,0,0,2.0273-1.2812,7.5884,7.5884,0,0,0,1.8184-2.76A9.4928,9.4928,0,0,0,149.0913,127.74Z"/></g></svg>