<svg xmlns="http://www.w3.org/2000/svg" width="205" height="159" viewBox="0 0 205 159"><defs><style>.cls-1{fill:#6f7b8d;}.cls-2{fill:#f3ece1;}</style></defs><title>to_alan_website_size</title><g id="milestone"><polygon class="cls-1" points="193.908 97.002 104.799 97.002 15.689 97.002 23.76 87.172 15.689 77.347 104.799 77.347 193.908 77.347 201.979 87.172 193.908 97.002"/><path class="cls-2" d="M104.0788,87.1723a4.7559,4.7559,0,1,1,4.7554,4.7548A4.7554,4.7554,0,0,1,104.0788,87.1723Z"/><path class="cls-1" d="M65.8833,58.7383H57.8784q.0264-1.0986.0791-4.4727t.0518-8.084q0-1.3329-.0127-3.205-.0132-1.8691-.0391-3.4395l-.1308-.0781q-1.1237.6034-3.1729,1.793-2.0508,1.1893-4.1387,2.3671l-2.707-4.6562q4.0254-2.329,7.8809-4.67T60.6421,31.35l5.2412,3.7149q-.0264,3.5829-.0654,6.9589-.04,3.3721-.0391,4.6817,0,2.9561.0391,6.9453T65.8833,58.7383Z"/><path class="cls-1" d="M100.8042,43.5391A14.75,14.75,0,0,1,99.76,49.1777a23.7491,23.7491,0,0,1-3.3965,5.5313q-2.4288,3.0879-6.8555,7.7031-4.4282,4.6172-5.9424,6.1348L76.5405,64.498q2.4551-2.3788,4.833-4.7187t3.9981-3.9375l-.0264-.1035a20.8205,20.8205,0,0,1-4.1728-1.0723,18.2812,18.2812,0,0,1-3.9883-1.9629,11.7957,11.7957,0,0,1-3.6494-3.8086,10.2027,10.2027,0,0,1-1.2686-5.2187,10.5182,10.5182,0,0,1,1.084-4.7637,13.02,13.02,0,0,1,2.8877-3.82,13.625,13.625,0,0,1,4.64-2.76,16.684,16.684,0,0,1,5.7364-.9824,18.0844,18.0844,0,0,1,5.7754.877A13.7059,13.7059,0,0,1,97.0151,34.83a11.7857,11.7857,0,0,1,2.73,3.6347A11.3463,11.3463,0,0,1,100.8042,43.5391Zm-8.0039.76a8.7479,8.7479,0,0,0-.4453-2.8125,6.7611,6.7611,0,0,0-1.4121-2.3925,5.1475,5.1475,0,0,0-2.0274-1.3614,6.7894,6.7894,0,0,0-2.3935-.4453,6.2483,6.2483,0,0,0-2.5108.4981,6.382,6.382,0,0,0-3.2832,3.6582,7.9179,7.9179,0,0,0-.458,2.6386,6.5742,6.5742,0,0,0,1.02,3.6465,7.7107,7.7107,0,0,0,2.7207,2.5488A13.4259,13.4259,0,0,0,86.64,51.5039a21.85,21.85,0,0,0,2.7852.7324,14.9081,14.9081,0,0,0,2.459-3.6172A9.9077,9.9077,0,0,0,92.8,44.2988Z"/><path class="cls-1" d="M134.0513,47.1973a10.8417,10.8417,0,0,1-1.15,4.8281,12.5087,12.5087,0,0,1-2.93,3.9121,14.9149,14.9149,0,0,1-4.6436,2.6953,16.3959,16.3959,0,0,1-5.5849.916,18.1452,18.1452,0,0,1-5.6758-.8633,13.6869,13.6869,0,0,1-4.7344-2.6679,11.2578,11.2578,0,0,1-3.8457-8.6856,15.5744,15.5744,0,0,1,.9278-5.3222,24.8187,24.8187,0,0,1,4.1162-6.5274q2.745-3.372,6.3388-7.0879t6.0244-6.1738l6.9043,4.1016q-2.0141,1.9335-4.6308,4.5215-2.6163,2.59-4.2383,4.2089v.1055a26.4033,26.4033,0,0,1,3.667.916,18.04,18.04,0,0,1,3.72,1.6231,11.8325,11.8325,0,0,1,4.3213,4.0683A10.3939,10.3939,0,0,1,134.0513,47.1973Zm-8.0039-.4356a6.1583,6.1583,0,0,0-1.1016-3.6328,8.3585,8.3585,0,0,0-2.8584-2.5351,11.4215,11.4215,0,0,0-2.7666-1.2168,24.714,24.714,0,0,0-2.5039-.6133,13.1068,13.1068,0,0,0-2.3565,3.5527,10.1331,10.1331,0,0,0-.97,4.3106,8.4424,8.4424,0,0,0,.4717,2.8632,6.7244,6.7244,0,0,0,1.39,2.3164A5.42,5.42,0,0,0,117.397,53.18a6.8341,6.8341,0,0,0,2.4111.4316,6.3123,6.3123,0,0,0,2.543-.5371,5.3568,5.3568,0,0,0,2.0185-1.4765,6.1006,6.1006,0,0,0,1.2451-2.1172A8.1422,8.1422,0,0,0,126.0474,46.7617Z"/><path class="cls-1" d="M168.2407,45.4492a14.6511,14.6511,0,0,1-1.1513,5.7949,12.5971,12.5971,0,0,1-3.4268,4.668,13.6392,13.6392,0,0,1-4.6689,2.6953,18.4086,18.4086,0,0,1-11.5879.0117,14.0149,14.0149,0,0,1-4.7217-2.68,13.7726,13.7726,0,0,1-3.4014-4.6836,15.2919,15.2919,0,0,1-.13-11.4434,13.17,13.17,0,0,1,3.1387-4.4863,13.5979,13.5979,0,0,1,4.8-2.9434A17.4525,17.4525,0,0,1,153.147,31.35a17.7776,17.7776,0,0,1,5.99.9688,13.9034,13.9034,0,0,1,4.7607,2.8242,13.3013,13.3013,0,0,1,3.2442,4.5644A14.5064,14.5064,0,0,1,168.2407,45.4492Zm-8.0049.1563a10.8956,10.8956,0,0,0-.6015-3.6094,7.1843,7.1843,0,0,0-1.8047-2.877,6.2319,6.2319,0,0,0-2.0274-1.3476,6.7989,6.7989,0,0,0-2.6289-.4844,6.633,6.633,0,0,0-2.747.5117,7.0306,7.0306,0,0,0-2.0137,1.3731,6.8957,6.8957,0,0,0-1.6875,2.7461,10.2937,10.2937,0,0,0-.6143,3.4785,10.6693,10.6693,0,0,0,.5752,3.57A7.1186,7.1186,0,0,0,148.57,51.832a6.3072,6.3072,0,0,0,2.001,1.3086,6.7076,6.7076,0,0,0,2.5762.4707,6.9126,6.9126,0,0,0,2.6025-.4707,6.471,6.471,0,0,0,2.0274-1.2832,7.555,7.555,0,0,0,1.8183-2.76A9.4762,9.4762,0,0,0,160.2358,45.6055Z"/></g></svg>