<svg xmlns="http://www.w3.org/2000/svg" width="198" height="159" viewBox="0 0 198 159"><defs><style>.cls-1{fill:#29abe2;}.cls-2{fill:#f3ece1;}</style></defs><title>to_alan_website_size</title><g id="milestone"><polygon class="cls-1" points="180.917 97.002 91.81 97.002 2.698 97.002 10.771 87.172 2.698 77.347 91.81 77.347 180.917 77.347 188.991 87.172 180.917 97.002"/><path class="cls-2" d="M91.0893,87.1723a4.7555,4.7555,0,1,1,4.7547,4.7548A4.7554,4.7554,0,0,1,91.0893,87.1723Z"/><path class="cls-1" d="M62.7383,58.7383q-.627,0-5.4531-.0274-4.8267-.0234-7.4952-.0254-3.1377,0-7.2451.0254t-5.0488.0274L35.377,53.8457q2.04-.8643,4.1074-1.9277,2.0654-1.0635,4.1592-2.2969a19.0483,19.0483,0,0,0,4.5117-3.4375,5.3867,5.3867,0,0,0,1.4785-3.6758,3.64,3.64,0,0,0-.7461-2.3476,4.8638,4.8638,0,0,0-2.1055-1.4571,11.5476,11.5476,0,0,0-2.707-.6562,25.1822,25.1822,0,0,0-3.2832-.209q-1.0986,0-2.1445.0527-1.0475.0528-1.8057.0782l.8633-6.1739q.8115-.0264,1.9619-.0781t2.2236-.0527a40.9746,40.9746,0,0,1,5.52.3418,19.3726,19.3726,0,0,1,4.6562,1.205,10.2277,10.2277,0,0,1,4.63,3.1739,7.6679,7.6679,0,0,1,1.4912,4.7714,7.7944,7.7944,0,0,1-.9424,3.6583,11.8467,11.8467,0,0,1-2.5107,3.2382,21.1824,21.1824,0,0,1-3.4532,2.6231,38.108,38.108,0,0,1-3.871,2.15l.0517.2343c1.1514-.0507,2.2588-.0957,3.3223-.1289q1.5953-.0526,2.8252-.08,2.8257-.0235,5.6631-.0508t3.4658-.0274Z"/><path class="cls-1" d="M95.2012,45.4492A14.6494,14.6494,0,0,1,94.05,51.2441a12.5971,12.5971,0,0,1-3.4268,4.668,13.6382,13.6382,0,0,1-4.6689,2.6953,18.4086,18.4086,0,0,1-11.5879.0117,14.0149,14.0149,0,0,1-4.7217-2.68,13.7709,13.7709,0,0,1-3.4013-4.6836,15.2906,15.2906,0,0,1-.13-11.4434,13.1669,13.1669,0,0,1,3.1387-4.4863,13.597,13.597,0,0,1,4.8-2.9434A17.4519,17.4519,0,0,1,80.1074,31.35a17.7782,17.7782,0,0,1,5.99.9688,13.9053,13.9053,0,0,1,4.7607,2.8242,13.3011,13.3011,0,0,1,3.2441,4.5644A14.5047,14.5047,0,0,1,95.2012,45.4492Zm-8.0049.1563a10.8931,10.8931,0,0,0-.6016-3.6094,7.1821,7.1821,0,0,0-1.8047-2.877,6.23,6.23,0,0,0-2.0273-1.3476,6.7993,6.7993,0,0,0-2.6289-.4844,6.6335,6.6335,0,0,0-2.7471.5117,7.0306,7.0306,0,0,0-2.0137,1.3731,6.8957,6.8957,0,0,0-1.6875,2.7461,10.296,10.296,0,0,0-.6142,3.4785,10.6693,10.6693,0,0,0,.5752,3.57A7.1176,7.1176,0,0,0,75.53,51.832a6.3078,6.3078,0,0,0,2.0009,1.3086,6.708,6.708,0,0,0,2.5762.4707,6.9132,6.9132,0,0,0,2.6026-.4707,6.4717,6.4717,0,0,0,2.0273-1.2832,7.5552,7.5552,0,0,0,1.8184-2.76A9.4783,9.4783,0,0,0,87.1963,45.6055Z"/><path class="cls-1" d="M125.91,58.7383q-.627,0-5.4532-.0274-4.8265-.0234-7.4951-.0254-3.1377,0-7.2451.0254t-5.0488.0274l-2.1192-4.8926q2.0406-.8643,4.1074-1.9277t4.1592-2.2969a19.0442,19.0442,0,0,0,4.5117-3.4375,5.3864,5.3864,0,0,0,1.4786-3.6758A3.64,3.64,0,0,0,112.06,40.16a4.8638,4.8638,0,0,0-2.1055-1.4571,11.5476,11.5476,0,0,0-2.707-.6562,25.1822,25.1822,0,0,0-3.2832-.209q-1.0987,0-2.1446.0527t-1.8056.0782l.8633-6.1739q.8115-.0264,1.9619-.0781t2.2236-.0527a40.972,40.972,0,0,1,5.5195.3418,19.3722,19.3722,0,0,1,4.6563,1.205,10.2277,10.2277,0,0,1,4.63,3.1739,7.6679,7.6679,0,0,1,1.4912,4.7714,7.7944,7.7944,0,0,1-.9424,3.6583,11.849,11.849,0,0,1-2.5108,3.2382,21.1812,21.1812,0,0,1-3.4531,2.6231,38.098,38.098,0,0,1-3.8711,2.15l.0518.2343c1.1514-.0507,2.2588-.0957,3.3223-.1289q1.5951-.0526,2.8251-.08,2.8257-.0235,5.6631-.0508,2.8389-.0264,3.4659-.0274Z"/><path class="cls-1" d="M158.373,45.4492a14.6493,14.6493,0,0,1-1.1513,5.7949,12.5971,12.5971,0,0,1-3.4268,4.668,13.6382,13.6382,0,0,1-4.6689,2.6953,18.4086,18.4086,0,0,1-11.5879.0117,14.0149,14.0149,0,0,1-4.7217-2.68,13.7726,13.7726,0,0,1-3.4014-4.6836,15.2913,15.2913,0,0,1-.13-11.4434,13.168,13.168,0,0,1,3.1386-4.4863,13.5979,13.5979,0,0,1,4.8-2.9434,17.4529,17.4529,0,0,1,6.0557-1.0332,17.7772,17.7772,0,0,1,5.99.9688,13.9048,13.9048,0,0,1,4.7608,2.8242,13.3011,13.3011,0,0,1,3.2441,4.5644A14.5064,14.5064,0,0,1,158.373,45.4492Zm-8.0048.1563a10.8931,10.8931,0,0,0-.6016-3.6094,7.1832,7.1832,0,0,0-1.8047-2.877,6.2314,6.2314,0,0,0-2.0273-1.3476,6.8,6.8,0,0,0-2.6289-.4844,6.6332,6.6332,0,0,0-2.7471.5117,7.0306,7.0306,0,0,0-2.0137,1.3731,6.8957,6.8957,0,0,0-1.6875,2.7461,10.296,10.296,0,0,0-.6142,3.4785,10.6693,10.6693,0,0,0,.5752,3.57,7.1184,7.1184,0,0,0,1.8837,2.8652,6.3072,6.3072,0,0,0,2.001,1.3086,6.7076,6.7076,0,0,0,2.5762.4707,6.9123,6.9123,0,0,0,2.6025-.4707,6.471,6.471,0,0,0,2.0274-1.2832,7.555,7.555,0,0,0,1.8183-2.76A9.4763,9.4763,0,0,0,150.3682,45.6055Z"/></g></svg>