<svg xmlns="http://www.w3.org/2000/svg" width="198" height="159" viewBox="0 0 198 159"><defs><style>.cls-1{fill:#9ac29c;}.cls-2{fill:#f3ece1;}</style></defs><title>to_alan_website_size</title><g id="milestone"><polygon class="cls-1" points="180.917 97.002 91.81 97.002 2.698 97.002 10.771 87.172 2.698 77.347 91.81 77.347 180.917 77.347 188.991 87.172 180.917 97.002"/><path class="cls-2" d="M91.0893,87.1723a4.7555,4.7555,0,1,1,4.7547,4.7548A4.7554,4.7554,0,0,1,91.0893,87.1723Z"/><path class="cls-1" d="M60.083,58.7383q-.627,0-5.4531-.0274-4.8267-.0234-7.4951-.0254-3.1377,0-7.2452.0254t-5.0488.0274l-2.1191-4.8926q2.04-.8643,4.1074-1.9277t4.1592-2.2969A19.0483,19.0483,0,0,0,45.5,46.1836a5.3863,5.3863,0,0,0,1.4785-3.6758,3.64,3.64,0,0,0-.7461-2.3476,4.8634,4.8634,0,0,0-2.1054-1.4571,11.5485,11.5485,0,0,0-2.7071-.6562,25.181,25.181,0,0,0-3.2832-.209q-1.0986,0-2.1445.0527-1.0474.0528-1.8057.0782l.8633-6.1739q.8115-.0264,1.9619-.0781t2.2237-.0527a40.9731,40.9731,0,0,1,5.52.3418,19.3714,19.3714,0,0,1,4.6562,1.205,10.2272,10.2272,0,0,1,4.63,3.1739,7.6673,7.6673,0,0,1,1.4912,4.7714,7.7932,7.7932,0,0,1-.9424,3.6583,11.8467,11.8467,0,0,1-2.5107,3.2382,21.1812,21.1812,0,0,1-3.4531,2.6231,38.1087,38.1087,0,0,1-3.8711,2.15l.0517.2343c1.1514-.0507,2.2588-.0957,3.3223-.1289q1.5952-.0526,2.8252-.08,2.8257-.0235,5.6631-.0508,2.8389-.0264,3.4658-.0274Z"/><path class="cls-1" d="M92.5459,45.4492a14.6494,14.6494,0,0,1-1.1514,5.7949,12.5957,12.5957,0,0,1-3.4267,4.668,13.6387,13.6387,0,0,1-4.669,2.6953,18.4086,18.4086,0,0,1-11.5879.0117,14.0144,14.0144,0,0,1-4.7216-2.68,13.77,13.77,0,0,1-3.4014-4.6836,15.2906,15.2906,0,0,1-.13-11.4434,13.17,13.17,0,0,1,3.1387-4.4863,13.5979,13.5979,0,0,1,4.8-2.9434A17.4519,17.4519,0,0,1,77.4521,31.35a17.7782,17.7782,0,0,1,5.99.9688,13.9034,13.9034,0,0,1,4.7607,2.8242,13.3027,13.3027,0,0,1,3.2442,4.5644A14.5064,14.5064,0,0,1,92.5459,45.4492Zm-8.0049.1563a10.8956,10.8956,0,0,0-.6015-3.6094,7.1843,7.1843,0,0,0-1.8047-2.877,6.2319,6.2319,0,0,0-2.0274-1.3476,6.7989,6.7989,0,0,0-2.6289-.4844,6.6335,6.6335,0,0,0-2.7471.5117,7.0287,7.0287,0,0,0-2.0136,1.3731A6.8957,6.8957,0,0,0,71.03,41.918a10.2937,10.2937,0,0,0-.6143,3.4785,10.6693,10.6693,0,0,0,.5752,3.57A7.1186,7.1186,0,0,0,72.875,51.832a6.3072,6.3072,0,0,0,2.001,1.3086,6.7075,6.7075,0,0,0,2.5761.4707,6.9132,6.9132,0,0,0,2.6026-.4707,6.4705,6.4705,0,0,0,2.0273-1.2832,7.5539,7.5539,0,0,0,1.8184-2.76A9.4783,9.4783,0,0,0,84.541,45.6055Z"/><path class="cls-1" d="M126.7871,45.4492a14.6494,14.6494,0,0,1-1.1514,5.7949,12.5957,12.5957,0,0,1-3.4267,4.668,13.6387,13.6387,0,0,1-4.669,2.6953,18.4086,18.4086,0,0,1-11.5879.0117,14.0144,14.0144,0,0,1-4.7216-2.68,13.7712,13.7712,0,0,1-3.4014-4.6836,15.2906,15.2906,0,0,1-.13-11.4434,13.17,13.17,0,0,1,3.1387-4.4863,13.5979,13.5979,0,0,1,4.8-2.9434,17.4525,17.4525,0,0,1,6.0557-1.0332,17.778,17.778,0,0,1,5.99.9688,13.9034,13.9034,0,0,1,4.7607,2.8242,13.3013,13.3013,0,0,1,3.2442,4.5644A14.5064,14.5064,0,0,1,126.7871,45.4492Zm-8.0049.1563a10.8956,10.8956,0,0,0-.6015-3.6094,7.1843,7.1843,0,0,0-1.8047-2.877,6.2319,6.2319,0,0,0-2.0274-1.3476,6.7989,6.7989,0,0,0-2.6289-.4844,6.633,6.633,0,0,0-2.747.5117,7.0306,7.0306,0,0,0-2.0137,1.3731,6.8957,6.8957,0,0,0-1.6875,2.7461,10.2937,10.2937,0,0,0-.6143,3.4785,10.6693,10.6693,0,0,0,.5752,3.57,7.1186,7.1186,0,0,0,1.8838,2.8652,6.3072,6.3072,0,0,0,2.001,1.3086,6.7076,6.7076,0,0,0,2.5762.4707,6.913,6.913,0,0,0,2.6025-.4707,6.4705,6.4705,0,0,0,2.0273-1.2832,7.5539,7.5539,0,0,0,1.8184-2.76A9.4762,9.4762,0,0,0,118.7822,45.6055Z"/><path class="cls-1" d="M161.0283,45.4492a14.6511,14.6511,0,0,1-1.1513,5.7949,12.5971,12.5971,0,0,1-3.4268,4.668,13.6392,13.6392,0,0,1-4.6689,2.6953,18.4086,18.4086,0,0,1-11.5879.0117,14.0149,14.0149,0,0,1-4.7217-2.68,13.7726,13.7726,0,0,1-3.4014-4.6836,15.2919,15.2919,0,0,1-.13-11.4434,13.17,13.17,0,0,1,3.1387-4.4863,13.5979,13.5979,0,0,1,4.8-2.9434,17.4525,17.4525,0,0,1,6.0557-1.0332,17.7776,17.7776,0,0,1,5.99.9688,13.9034,13.9034,0,0,1,4.7607,2.8242A13.3013,13.3013,0,0,1,159.93,39.707,14.5064,14.5064,0,0,1,161.0283,45.4492Zm-8.0049.1563a10.8956,10.8956,0,0,0-.6015-3.6094,7.1843,7.1843,0,0,0-1.8047-2.877,6.2319,6.2319,0,0,0-2.0274-1.3476,6.7989,6.7989,0,0,0-2.6289-.4844,6.633,6.633,0,0,0-2.747.5117A7.0306,7.0306,0,0,0,141.2,39.1719a6.8957,6.8957,0,0,0-1.6875,2.7461,10.2937,10.2937,0,0,0-.6143,3.4785,10.6693,10.6693,0,0,0,.5752,3.57,7.1186,7.1186,0,0,0,1.8838,2.8652,6.3072,6.3072,0,0,0,2.001,1.3086,6.7076,6.7076,0,0,0,2.5762.4707,6.9126,6.9126,0,0,0,2.6025-.4707,6.471,6.471,0,0,0,2.0274-1.2832,7.555,7.555,0,0,0,1.8183-2.76A9.4762,9.4762,0,0,0,153.0234,45.6055Z"/></g></svg>