<svg xmlns="http://www.w3.org/2000/svg" width="198" height="159" viewBox="0 0 198 159"><defs><style>.cls-1{fill:#8a2187;}.cls-2{fill:#f3ece1;}.cls-3{fill:#820a7f;}</style></defs><title>to_alan_website_size</title><g id="milestone"><polygon class="cls-1" points="180.466 97.002 91.353 97.002 2.25 97.002 10.318 87.172 2.25 77.347 91.353 77.347 180.466 77.347 188.535 87.172 180.466 97.002"/><path class="cls-2" d="M90.6411,87.1723a4.7555,4.7555,0,1,1,4.7548,4.7548A4.7553,4.7553,0,0,1,90.6411,87.1723Z"/><path class="cls-3" d="M63.9155,140.8711q-.6269,0-5.4531-.0254t-7.4951-.0273q-3.1377,0-7.2451.0273t-5.0489.0254l-2.1191-4.8906q2.0406-.8673,4.1074-1.93t4.1592-2.2969a18.9914,18.9914,0,0,0,4.5117-3.4375,5.3817,5.3817,0,0,0,1.4785-3.6738,3.6452,3.6452,0,0,0-.7461-2.35,4.86,4.86,0,0,0-2.1054-1.4551,11.3625,11.3625,0,0,0-2.7071-.6563,24.8482,24.8482,0,0,0-3.2832-.2109q-1.0986,0-2.1445.0527t-1.8057.0782l.8633-6.1739c.541-.0156,1.1944-.0429,1.9619-.0781s1.5088-.0527,2.2237-.0527a41.3028,41.3028,0,0,1,5.52.3418,19.282,19.282,0,0,1,4.6563,1.207,10.2242,10.2242,0,0,1,4.63,3.1719,7.6692,7.6692,0,0,1,1.4912,4.7734,7.8055,7.8055,0,0,1-.9423,3.6582,11.878,11.878,0,0,1-2.5108,3.2383,21.1852,21.1852,0,0,1-3.4531,2.6211,37.3454,37.3454,0,0,1-3.8711,2.15l.0518.2363q1.727-.0791,3.3222-.1308t2.8252-.0782l5.6631-.0527q2.8389-.0264,3.4658-.0254Z"/><path class="cls-3" d="M96.3784,127.584a14.6492,14.6492,0,0,1-1.1513,5.793,12.62,12.62,0,0,1-3.4268,4.67,13.6346,13.6346,0,0,1-4.669,2.6933,18.4271,18.4271,0,0,1-11.5878.0137,14.0529,14.0529,0,0,1-4.7217-2.6816,13.7463,13.7463,0,0,1-3.4014-4.6817,15.2969,15.2969,0,0,1-.13-11.4453,13.1636,13.1636,0,0,1,3.1387-4.4844,13.5977,13.5977,0,0,1,4.8-2.9433,17.406,17.406,0,0,1,6.0557-1.0332,17.7779,17.7779,0,0,1,5.99.9668,13.941,13.941,0,0,1,4.7607,2.8261,13.265,13.265,0,0,1,3.2442,4.5645A14.4929,14.4929,0,0,1,96.3784,127.584Zm-8.0049.1562a10.8782,10.8782,0,0,0-.6015-3.6093,7.1769,7.1769,0,0,0-1.8047-2.8789,6.2255,6.2255,0,0,0-2.0274-1.3458,6.8008,6.8008,0,0,0-2.6289-.4843,6.6343,6.6343,0,0,0-2.747.51,7.0711,7.0711,0,0,0-2.0137,1.3731,6.89,6.89,0,0,0-1.6875,2.748,10.2941,10.2941,0,0,0-.6143,3.4785,10.6779,10.6779,0,0,0,.5752,3.57,7.112,7.112,0,0,0,1.8838,2.8632,6.3072,6.3072,0,0,0,2.001,1.3086,6.67,6.67,0,0,0,2.5762.4707,6.8736,6.8736,0,0,0,2.6025-.4707,6.466,6.466,0,0,0,2.0274-1.2812,7.5882,7.5882,0,0,0,1.8183-2.76A9.4907,9.4907,0,0,0,88.3735,127.74Z"/><path class="cls-3" d="M116.9126,140.8711h-8.0049q.0264-1.0986.0791-4.4727t.0518-8.082q0-1.3359-.0127-3.2051c-.0088-1.2461-.0225-2.3945-.0391-3.4394l-.1308-.0781q-1.1236.6-3.1729,1.791-2.0508,1.1894-4.1387,2.3672l-2.707-4.6563q4.0254-2.3262,7.8809-4.67,3.8555-2.3379,4.9531-2.9414l5.2412,3.7148q-.0264,3.5831-.0654,6.957t-.0391,4.6817q0,2.9589.0391,6.9453Q116.8867,139.7735,116.9126,140.8711Z"/><path class="cls-3" d="M153.5083,127.584a14.6476,14.6476,0,0,1-1.1514,5.793,12.6191,12.6191,0,0,1-3.4267,4.67,13.6346,13.6346,0,0,1-4.669,2.6933,18.4274,18.4274,0,0,1-11.5879.0137,14.0525,14.0525,0,0,1-4.7216-2.6816,13.7436,13.7436,0,0,1-3.4014-4.6817,15.2956,15.2956,0,0,1-.13-11.4453,13.1636,13.1636,0,0,1,3.1387-4.4844,13.5977,13.5977,0,0,1,4.8-2.9433,17.4056,17.4056,0,0,1,6.0557-1.0332,17.7783,17.7783,0,0,1,5.99.9668,13.941,13.941,0,0,1,4.7607,2.8261,13.2663,13.2663,0,0,1,3.2442,4.5645A14.4929,14.4929,0,0,1,153.5083,127.584Zm-8.0049.1562a10.8782,10.8782,0,0,0-.6015-3.6093,7.1769,7.1769,0,0,0-1.8047-2.8789,6.2255,6.2255,0,0,0-2.0274-1.3458,6.8008,6.8008,0,0,0-2.6289-.4843,6.6348,6.6348,0,0,0-2.7471.51,7.0693,7.0693,0,0,0-2.0136,1.3731,6.89,6.89,0,0,0-1.6875,2.748,10.2941,10.2941,0,0,0-.6143,3.4785,10.6779,10.6779,0,0,0,.5752,3.57,7.112,7.112,0,0,0,1.8838,2.8632,6.3072,6.3072,0,0,0,2.001,1.3086,6.67,6.67,0,0,0,2.5762.4707,6.874,6.874,0,0,0,2.6025-.4707,6.4655,6.4655,0,0,0,2.0273-1.2812,7.5871,7.5871,0,0,0,1.8184-2.76A9.4907,9.4907,0,0,0,145.5034,127.74Z"/></g></svg>