<svg xmlns="http://www.w3.org/2000/svg" width="376" height="214" viewBox="0 0 376 214"><defs><style>.cls-1,.cls-2{fill:#86c4c8;}.cls-2{stroke:#86c4c8;stroke-miterlimit:10;stroke-width:5px;}</style></defs><title>to_alan_website_size</title><g id="milestone"><path class="cls-1" d="M70.2114,132.2891H55.27q.0483-2.0508.1465-8.35t.0977-15.0879q0-2.49-.0245-5.9815t-.0732-6.4209l-.2432-.1465q-2.0961,1.1236-5.9228,3.3448t-7.7256,4.4189L36.4712,95.375q7.5147-4.3448,14.7109-8.7158t9.2471-5.4932L70.2114,88.1q-.05,6.69-.122,12.9883t-.0733,8.74q0,5.518.0733,12.9639T70.2114,132.2891Z"/><path class="cls-1" d="M135.397,103.92a27.512,27.512,0,0,1-1.95,10.5225,44.22,44.22,0,0,1-6.3389,10.3271q-4.5337,5.7627-12.7969,14.38T103.2192,150.6L90.104,143.043q4.5849-4.4429,9.0225-8.8116t7.4619-7.3466l-.0488-.1953a38.8374,38.8374,0,0,1-7.7881-2.002,34.1221,34.1221,0,0,1-7.4463-3.6641,22.0144,22.0144,0,0,1-6.8115-7.1064,19.0774,19.0774,0,0,1-2.3682-9.7441A19.62,19.62,0,0,1,84.15,95.2822,24.3124,24.3124,0,0,1,89.5405,88.15,25.428,25.428,0,0,1,98.2,82.998a31.1668,31.1668,0,0,1,10.708-1.832,33.7723,33.7723,0,0,1,10.7813,1.6358,25.6284,25.6284,0,0,1,8.6338,4.8584,22.0368,22.0368,0,0,1,5.0986,6.7871A21.1984,21.1984,0,0,1,135.397,103.92Zm-14.9414,1.416a16.3663,16.3663,0,0,0-.83-5.249,12.6467,12.6467,0,0,0-2.6367-4.4678,9.6188,9.6188,0,0,0-3.7842-2.539,12.6989,12.6989,0,0,0-4.4678-.83,11.6982,11.6982,0,0,0-4.6875.9268,11.928,11.928,0,0,0-6.1279,6.8291,14.7983,14.7983,0,0,0-.8545,4.9277,12.2724,12.2724,0,0,0,1.9043,6.8047,14.4061,14.4061,0,0,0,5.0781,4.7568,25.0377,25.0377,0,0,0,4.9072,2.292,40.9512,40.9512,0,0,0,5.2,1.3662,27.9033,27.9033,0,0,0,4.59-6.751A18.51,18.51,0,0,0,120.4556,105.3359Z"/><path class="cls-1" d="M192.0864,91.7129q-11.231,19.9218-20.8252,36.9141t-10.9131,19.4335l-12.9824-5.9082q9.0381-15.4774,16.78-29.2724,7.7432-13.793,10.2353-18.1885l-.0488-.1465q-2.2968,0-4.3252.0244t-4.3232.0245q-7.67,0-15.4385.0976t-8.6963.0977V82.875q.6344,0,7.3486.0244t14.2823.0244q5.0288,0,12.5-.0244t9.9609-.0244Z"/><path class="cls-1" d="M252.8774,107.4844A27.3635,27.3635,0,0,1,250.729,118.3a23.5438,23.5438,0,0,1-6.3965,8.7158,25.46,25.46,0,0,1-8.7158,5.0293,34.3776,34.3776,0,0,1-21.6309.0244,26.2024,26.2024,0,0,1-8.8134-5.0048,25.6644,25.6644,0,0,1-6.3477-8.74,28.5488,28.5488,0,0,1-.2441-21.3623,24.5965,24.5965,0,0,1,5.8593-8.374,25.3868,25.3868,0,0,1,8.96-5.4932,32.534,32.534,0,0,1,11.3037-1.9287,33.1681,33.1681,0,0,1,11.1817,1.8067,26.0051,26.0051,0,0,1,8.8867,5.2734,24.8035,24.8035,0,0,1,6.0547,8.52A27.0663,27.0663,0,0,1,252.8774,107.4844Zm-14.9414.2929a20.3461,20.3461,0,0,0-1.123-6.7382,13.3953,13.3953,0,0,0-3.3692-5.3711,11.5843,11.5843,0,0,0-3.7841-2.5147,12.697,12.697,0,0,0-4.9073-.9033,12.375,12.375,0,0,0-5.1269.9521,13.157,13.157,0,0,0-3.76,2.5635,12.897,12.897,0,0,0-3.1494,5.127,19.2265,19.2265,0,0,0-1.1475,6.4941,19.9271,19.9271,0,0,0,1.0743,6.6651,13.3175,13.3175,0,0,0,3.5156,5.3466,11.7761,11.7761,0,0,0,3.7353,2.4414,12.4769,12.4769,0,0,0,4.81.879,12.8535,12.8535,0,0,0,4.8584-.879,12.0731,12.0731,0,0,0,3.7842-2.3925,14.153,14.153,0,0,0,3.3935-5.1514A17.71,17.71,0,0,0,237.936,107.7773Z"/><line class="cls-2" x1="40.5714" y1="168.397" x2="326.581" y2="168.397"/><circle class="cls-2" cx="326.581" cy="168.397" r="2.5"/></g></svg>