<svg xmlns="http://www.w3.org/2000/svg" width="376" height="214" viewBox="0 0 376 214"><defs><style>.cls-1,.cls-2{fill:#8a2187;}.cls-2{stroke:#8a2187;stroke-miterlimit:10;stroke-width:5px;}</style></defs><title>to_alan_website_size</title><g id="milestone"><path class="cls-1" d="M89.2046,132.2891q-1.172,0-10.1807-.0489t-13.9892-.0488q-5.8595,0-13.5254.0488t-9.4239.0489l-3.955-9.1309q3.8085-1.6156,7.666-3.6006,3.857-1.9833,7.7637-4.2871a35.5176,35.5176,0,0,0,8.4228-6.417,10.0489,10.0489,0,0,0,2.7588-6.8584A6.7936,6.7936,0,0,0,63.35,97.6113a9.0751,9.0751,0,0,0-3.9307-2.72,21.4586,21.4586,0,0,0-5.0537-1.2236,46.4915,46.4915,0,0,0-6.1279-.3926q-2.0508,0-4.0039.0976t-3.3692.1465l1.6114-11.5234q1.5132-.0483,3.6621-.1465,2.1474-.0966,4.15-.0976a76.8026,76.8026,0,0,1,10.3027.6367A36.1591,36.1591,0,0,1,69.2827,84.64q5.8594,2.253,8.6426,5.9229a14.3194,14.3194,0,0,1,2.7832,8.9092A14.5551,14.5551,0,0,1,78.9507,106.3a22.1453,22.1453,0,0,1-4.6875,6.0449,39.5351,39.5351,0,0,1-6.4453,4.8946,70.1737,70.1737,0,0,1-7.2266,4.0136l.0977.4405q3.2226-.1466,6.2011-.2442t5.2735-.1465q5.2734-.0483,10.5713-.0976t6.47-.0489Z"/><path class="cls-1" d="M149.8,107.4844A27.3635,27.3635,0,0,1,147.6519,118.3a23.546,23.546,0,0,1-6.3965,8.7158,25.46,25.46,0,0,1-8.7158,5.0293,34.3776,34.3776,0,0,1-21.6309.0244,26.2039,26.2039,0,0,1-8.8135-5.0048,25.6628,25.6628,0,0,1-6.3476-8.74,28.5494,28.5494,0,0,1-.2442-21.3623,24.5982,24.5982,0,0,1,5.8594-8.374,25.3859,25.3859,0,0,1,8.96-5.4932,32.534,32.534,0,0,1,11.3037-1.9287,33.1675,33.1675,0,0,1,11.1816,1.8067,26.0032,26.0032,0,0,1,8.8867,5.2734,24.8021,24.8021,0,0,1,6.0547,8.52A27.0646,27.0646,0,0,1,149.8,107.4844Zm-14.9414.2929a20.3436,20.3436,0,0,0-1.1231-6.7382,13.3951,13.3951,0,0,0-3.3691-5.3711,11.5837,11.5837,0,0,0-3.7842-2.5147,12.6961,12.6961,0,0,0-4.9072-.9033,12.3755,12.3755,0,0,0-5.127.9521,13.1552,13.1552,0,0,0-3.76,2.5635,12.8947,12.8947,0,0,0-3.1494,5.127,19.224,19.224,0,0,0-1.1475,6.4941,19.9271,19.9271,0,0,0,1.0742,6.6651,13.3175,13.3175,0,0,0,3.5156,5.3466,11.7776,11.7776,0,0,0,3.7354,2.4414,12.4762,12.4762,0,0,0,4.81.879,12.8542,12.8542,0,0,0,4.8584-.879,12.0738,12.0738,0,0,0,3.7841-2.3925,14.1532,14.1532,0,0,0,3.3936-5.1514A17.71,17.71,0,0,0,134.8589,107.7773Z"/><path class="cls-1" d="M188.13,132.2891H173.189q.0483-2.0508.1464-8.35t.0977-15.0879q0-2.49-.0244-5.9815t-.0733-6.4209l-.2431-.1465q-2.0963,1.1236-5.9229,3.3448t-7.7256,4.4189L154.39,95.375q7.5147-4.3448,14.711-8.7158t9.247-5.4932L188.13,88.1q-.05,6.69-.1221,12.9883t-.0732,8.74q0,5.518.0732,12.9639T188.13,132.2891Z"/><path class="cls-1" d="M256.4409,107.4844A27.3635,27.3635,0,0,1,254.2925,118.3a23.5449,23.5449,0,0,1-6.3965,8.7158,25.46,25.46,0,0,1-8.7158,5.0293,34.3776,34.3776,0,0,1-21.6309.0244,26.2039,26.2039,0,0,1-8.8135-5.0048,25.6641,25.6641,0,0,1-6.3476-8.74,28.5494,28.5494,0,0,1-.2442-21.3623,24.5982,24.5982,0,0,1,5.8594-8.374,25.3868,25.3868,0,0,1,8.96-5.4932,32.534,32.534,0,0,1,11.3037-1.9287,33.1675,33.1675,0,0,1,11.1816,1.8067,26.0032,26.0032,0,0,1,8.8867,5.2734,24.8021,24.8021,0,0,1,6.0547,8.52A27.0646,27.0646,0,0,1,256.4409,107.4844Zm-14.9414.2929a20.3461,20.3461,0,0,0-1.123-6.7382,13.3964,13.3964,0,0,0-3.3692-5.3711,11.5837,11.5837,0,0,0-3.7842-2.5147,12.6961,12.6961,0,0,0-4.9072-.9033,12.375,12.375,0,0,0-5.1269.9521,13.1557,13.1557,0,0,0-3.76,2.5635,12.8947,12.8947,0,0,0-3.1494,5.127,19.2265,19.2265,0,0,0-1.1475,6.4941,19.9271,19.9271,0,0,0,1.0742,6.6651,13.3177,13.3177,0,0,0,3.5157,5.3466,11.7761,11.7761,0,0,0,3.7353,2.4414,12.4765,12.4765,0,0,0,4.81.879,12.8538,12.8538,0,0,0,4.8584-.879,12.0754,12.0754,0,0,0,3.7842-2.3925,14.153,14.153,0,0,0,3.3935-5.1514A17.71,17.71,0,0,0,241.5,107.7773Z"/><line class="cls-2" x1="40.5714" y1="168.397" x2="326.581" y2="168.397"/><circle class="cls-2" cx="326.581" cy="168.397" r="2.5"/></g></svg>