<svg xmlns="http://www.w3.org/2000/svg" width="376" height="214" viewBox="0 0 376 214"><defs><style>.cls-1,.cls-2{fill:#6f7b8d;}.cls-2{stroke:#6f7b8d;stroke-miterlimit:10;stroke-width:5px;}</style></defs><title>to_alan_website_size</title><g id="milestone"><path class="cls-1" d="M70.2114,132.2891H55.27q.0483-2.0508.1465-8.35t.0977-15.0879q0-2.49-.0245-5.9815t-.0732-6.4209l-.2432-.1465q-2.0961,1.1236-5.9228,3.3448t-7.7256,4.4189L36.4712,95.375q7.5147-4.3448,14.7109-8.7158t9.2471-5.4932L70.2114,88.1q-.05,6.69-.122,12.9883t-.0733,8.74q0,5.518.0733,12.9639T70.2114,132.2891Z"/><path class="cls-1" d="M135.397,103.92a27.512,27.512,0,0,1-1.95,10.5225,44.22,44.22,0,0,1-6.3389,10.3271q-4.5337,5.7627-12.7969,14.38T103.2192,150.6L90.104,143.043q4.5849-4.4429,9.0225-8.8116t7.4619-7.3466l-.0488-.1953a38.8374,38.8374,0,0,1-7.7881-2.002,34.1221,34.1221,0,0,1-7.4463-3.6641,22.0144,22.0144,0,0,1-6.8115-7.1064,19.0774,19.0774,0,0,1-2.3682-9.7441A19.62,19.62,0,0,1,84.15,95.2822,24.3124,24.3124,0,0,1,89.5405,88.15,25.428,25.428,0,0,1,98.2,82.998a31.1668,31.1668,0,0,1,10.708-1.832,33.7723,33.7723,0,0,1,10.7813,1.6358,25.6284,25.6284,0,0,1,8.6338,4.8584,22.0368,22.0368,0,0,1,5.0986,6.7871A21.1984,21.1984,0,0,1,135.397,103.92Zm-14.9414,1.416a16.3663,16.3663,0,0,0-.83-5.249,12.6467,12.6467,0,0,0-2.6367-4.4678,9.6188,9.6188,0,0,0-3.7842-2.539,12.6989,12.6989,0,0,0-4.4678-.83,11.6982,11.6982,0,0,0-4.6875.9268,11.928,11.928,0,0,0-6.1279,6.8291,14.7983,14.7983,0,0,0-.8545,4.9277,12.2724,12.2724,0,0,0,1.9043,6.8047,14.4061,14.4061,0,0,0,5.0781,4.7568,25.0377,25.0377,0,0,0,4.9072,2.292,40.9512,40.9512,0,0,0,5.2,1.3662,27.9033,27.9033,0,0,0,4.59-6.751A18.51,18.51,0,0,0,120.4556,105.3359Z"/><path class="cls-1" d="M197.4575,110.7451a20.221,20.221,0,0,1-2.1484,9.0137,23.3321,23.3321,0,0,1-5.4688,7.3027,27.7639,27.7639,0,0,1-8.667,5.0313,30.6471,30.6471,0,0,1-10.4248,1.71,33.9143,33.9143,0,0,1-10.5957-1.6113,25.5341,25.5341,0,0,1-8.8379-4.98A21.0162,21.0162,0,0,1,144.1372,111a29.12,29.12,0,0,1,1.7315-9.9365q1.7313-4.8092,7.6845-12.1826,5.1226-6.2989,11.8311-13.2325T176.63,64.125l12.8877,7.6543q-3.76,3.6123-8.6436,8.4424t-7.9111,7.8564v.1953a49.8464,49.8464,0,0,1,6.8447,1.71,33.9044,33.9044,0,0,1,6.9424,3.0283,22.08,22.08,0,0,1,8.0664,7.5967A19.3919,19.3919,0,0,1,197.4575,110.7451Zm-14.9414-.81a11.5065,11.5065,0,0,0-2.0557-6.7823,15.6273,15.6273,0,0,0-5.3349-4.7334,21.3194,21.3194,0,0,0-5.1641-2.2685,46.7559,46.7559,0,0,0-4.6738-1.1465,24.5213,24.5213,0,0,0-4.4,6.6318,18.9236,18.9236,0,0,0-1.8086,8.0459,15.7638,15.7638,0,0,0,.8809,5.3467,12.4725,12.4725,0,0,0,2.5927,4.3213,10.0671,10.0671,0,0,0,3.8174,2.5635,12.7346,12.7346,0,0,0,4.501.8057,11.7826,11.7826,0,0,0,4.7461-1,10.0186,10.0186,0,0,0,3.7676-2.7579,11.3572,11.3572,0,0,0,2.3242-3.9521A15.1937,15.1937,0,0,0,182.5161,109.9346Z"/><path class="cls-1" d="M261.2759,107.4844A27.3618,27.3618,0,0,1,259.1274,118.3a23.5447,23.5447,0,0,1-6.3964,8.7158,25.4592,25.4592,0,0,1-8.7159,5.0293,34.3773,34.3773,0,0,1-21.6308.0244,26.2029,26.2029,0,0,1-8.8135-5.0048,25.6644,25.6644,0,0,1-6.3477-8.74,28.55,28.55,0,0,1-.2441-21.3623,24.5982,24.5982,0,0,1,5.8594-8.374,25.3854,25.3854,0,0,1,8.96-5.4932,32.5346,32.5346,0,0,1,11.3038-1.9287,33.1679,33.1679,0,0,1,11.1816,1.8067,26.0041,26.0041,0,0,1,8.8867,5.2734,24.8021,24.8021,0,0,1,6.0547,8.52A27.0646,27.0646,0,0,1,261.2759,107.4844Zm-14.9414.2929a20.3436,20.3436,0,0,0-1.1231-6.7382,13.3951,13.3951,0,0,0-3.3691-5.3711,11.5847,11.5847,0,0,0-3.7842-2.5147,12.6965,12.6965,0,0,0-4.9072-.9033,12.3751,12.3751,0,0,0-5.127.9521,13.1552,13.1552,0,0,0-3.76,2.5635,12.896,12.896,0,0,0-3.1495,5.127,19.2263,19.2263,0,0,0-1.1474,6.4941,19.9271,19.9271,0,0,0,1.0742,6.6651,13.3175,13.3175,0,0,0,3.5156,5.3466,11.7765,11.7765,0,0,0,3.7354,2.4414,12.4762,12.4762,0,0,0,4.81.879,12.8533,12.8533,0,0,0,4.8583-.879,12.0731,12.0731,0,0,0,3.7842-2.3925,14.1532,14.1532,0,0,0,3.3936-5.1514A17.71,17.71,0,0,0,246.3345,107.7773Z"/><line class="cls-2" x1="40.5714" y1="168.397" x2="326.581" y2="168.397"/><circle class="cls-2" cx="326.581" cy="168.397" r="2.5"/></g></svg>