<svg xmlns="http://www.w3.org/2000/svg" width="376" height="214" viewBox="0 0 376 214"><defs><style>.cls-1,.cls-2{fill:#e86a58;}.cls-2{stroke:#e86a58;stroke-miterlimit:10;stroke-width:5px;}</style></defs><title>to_alan_website_size</title><g id="milestone"><path class="cls-1" d="M70.2114,132.2891H55.27q.0483-2.0508.1465-8.35t.0977-15.0879q0-2.49-.0245-5.9815t-.0732-6.4209l-.2432-.1465q-2.0961,1.1236-5.9228,3.3448t-7.7256,4.4189L36.4712,95.375q7.5147-4.3448,14.7109-8.7158t9.2471-5.4932L70.2114,88.1q-.05,6.69-.122,12.9883t-.0733,8.74q0,5.518.0733,12.9639T70.2114,132.2891Z"/><path class="cls-1" d="M135.397,103.92a27.512,27.512,0,0,1-1.95,10.5225,44.22,44.22,0,0,1-6.3389,10.3271q-4.5337,5.7627-12.7969,14.38T103.2192,150.6L90.104,143.043q4.5849-4.4429,9.0225-8.8116t7.4619-7.3466l-.0488-.1953a38.8374,38.8374,0,0,1-7.7881-2.002,34.1221,34.1221,0,0,1-7.4463-3.6641,22.0144,22.0144,0,0,1-6.8115-7.1064,19.0774,19.0774,0,0,1-2.3682-9.7441A19.62,19.62,0,0,1,84.15,95.2822,24.3124,24.3124,0,0,1,89.5405,88.15,25.428,25.428,0,0,1,98.2,82.998a31.1668,31.1668,0,0,1,10.708-1.832,33.7723,33.7723,0,0,1,10.7813,1.6358,25.6284,25.6284,0,0,1,8.6338,4.8584,22.0368,22.0368,0,0,1,5.0986,6.7871A21.1984,21.1984,0,0,1,135.397,103.92Zm-14.9414,1.416a16.3663,16.3663,0,0,0-.83-5.249,12.6467,12.6467,0,0,0-2.6367-4.4678,9.6188,9.6188,0,0,0-3.7842-2.539,12.6989,12.6989,0,0,0-4.4678-.83,11.6982,11.6982,0,0,0-4.6875.9268,11.928,11.928,0,0,0-6.1279,6.8291,14.7983,14.7983,0,0,0-.8545,4.9277,12.2724,12.2724,0,0,0,1.9043,6.8047,14.4061,14.4061,0,0,0,5.0781,4.7568,25.0377,25.0377,0,0,0,4.9072,2.292,40.9512,40.9512,0,0,0,5.2,1.3662,27.9033,27.9033,0,0,0,4.59-6.751A18.51,18.51,0,0,0,120.4556,105.3359Z"/><path class="cls-1" d="M196.7739,103.92a27.512,27.512,0,0,1-1.95,10.5225,44.2229,44.2229,0,0,1-6.3388,10.3271q-4.5338,5.7627-12.7969,14.38-8.2647,8.6176-11.0918,11.45L151.481,143.043q4.5849-4.4429,9.0224-8.8116t7.4619-7.3466l-.0488-.1953a38.8391,38.8391,0,0,1-7.7881-2.002,34.1244,34.1244,0,0,1-7.4463-3.6641,22.0144,22.0144,0,0,1-6.8115-7.1064,19.0774,19.0774,0,0,1-2.3682-9.7441,19.6192,19.6192,0,0,1,2.0245-8.8907,24.3107,24.3107,0,0,1,5.3906-7.1318,25.4261,25.4261,0,0,1,8.6592-5.1524,31.1664,31.1664,0,0,1,10.708-1.832,33.7717,33.7717,0,0,1,10.7812,1.6358A25.6265,25.6265,0,0,1,189.7,87.66a22.0353,22.0353,0,0,1,5.0986,6.7871A21.1984,21.1984,0,0,1,196.7739,103.92Zm-14.9414,1.416a16.3635,16.3635,0,0,0-.83-5.249,12.6467,12.6467,0,0,0-2.6367-4.4678,9.6188,9.6188,0,0,0-3.7842-2.539,12.6984,12.6984,0,0,0-4.4677-.83,11.6976,11.6976,0,0,0-4.6875.9268,11.9278,11.9278,0,0,0-6.128,6.8291,14.7983,14.7983,0,0,0-.8545,4.9277,12.2724,12.2724,0,0,0,1.9043,6.8047,14.4073,14.4073,0,0,0,5.0782,4.7568,25.0351,25.0351,0,0,0,4.9072,2.292,40.9468,40.9468,0,0,0,5.2,1.3662,27.9028,27.9028,0,0,0,4.59-6.751A18.51,18.51,0,0,0,181.8325,105.3359Z"/><path class="cls-1" d="M261.2759,107.4844A27.3618,27.3618,0,0,1,259.1274,118.3a23.5447,23.5447,0,0,1-6.3964,8.7158,25.4592,25.4592,0,0,1-8.7159,5.0293,34.3773,34.3773,0,0,1-21.6308.0244,26.2029,26.2029,0,0,1-8.8135-5.0048,25.6644,25.6644,0,0,1-6.3477-8.74,28.55,28.55,0,0,1-.2441-21.3623,24.5982,24.5982,0,0,1,5.8594-8.374,25.3854,25.3854,0,0,1,8.96-5.4932,32.5346,32.5346,0,0,1,11.3038-1.9287,33.1679,33.1679,0,0,1,11.1816,1.8067,26.0041,26.0041,0,0,1,8.8867,5.2734,24.8021,24.8021,0,0,1,6.0547,8.52A27.0646,27.0646,0,0,1,261.2759,107.4844Zm-14.9414.2929a20.3436,20.3436,0,0,0-1.1231-6.7382,13.3951,13.3951,0,0,0-3.3691-5.3711,11.5847,11.5847,0,0,0-3.7842-2.5147,12.6965,12.6965,0,0,0-4.9072-.9033,12.3751,12.3751,0,0,0-5.127.9521,13.1552,13.1552,0,0,0-3.76,2.5635,12.896,12.896,0,0,0-3.1495,5.127,19.2263,19.2263,0,0,0-1.1474,6.4941,19.9271,19.9271,0,0,0,1.0742,6.6651,13.3175,13.3175,0,0,0,3.5156,5.3466,11.7765,11.7765,0,0,0,3.7354,2.4414,12.4762,12.4762,0,0,0,4.81.879,12.8533,12.8533,0,0,0,4.8583-.879,12.0731,12.0731,0,0,0,3.7842-2.3925,14.1532,14.1532,0,0,0,3.3936-5.1514A17.71,17.71,0,0,0,246.3345,107.7773Z"/><line class="cls-2" x1="40.5714" y1="168.397" x2="326.581" y2="168.397"/><circle class="cls-2" cx="326.581" cy="168.397" r="2.5"/></g></svg>