<svg xmlns="http://www.w3.org/2000/svg" width="376" height="214" viewBox="0 0 376 214"><defs><style>.cls-1,.cls-2{fill:#eec025;}.cls-2{stroke:#eec025;stroke-miterlimit:10;stroke-width:5px;}</style></defs><title>to_alan_website_size</title><g id="milestone"><path class="cls-1" d="M70.2114,132.2891H55.27q.0483-2.0508.1465-8.35t.0977-15.0879q0-2.49-.0245-5.9815t-.0732-6.4209l-.2432-.1465q-2.0961,1.1236-5.9228,3.3448t-7.7256,4.4189L36.4712,95.375q7.5147-4.3448,14.7109-8.7158t9.2471-5.4932L70.2114,88.1q-.05,6.69-.122,12.9883t-.0733,8.74q0,5.518.0733,12.9639T70.2114,132.2891Z"/><path class="cls-1" d="M135.397,103.92a27.512,27.512,0,0,1-1.95,10.5225,44.22,44.22,0,0,1-6.3389,10.3271q-4.5337,5.7627-12.7969,14.38T103.2192,150.6L90.104,143.043q4.5849-4.4429,9.0225-8.8116t7.4619-7.3466l-.0488-.1953a38.8374,38.8374,0,0,1-7.7881-2.002,34.1221,34.1221,0,0,1-7.4463-3.6641,22.0144,22.0144,0,0,1-6.8115-7.1064,19.0774,19.0774,0,0,1-2.3682-9.7441A19.62,19.62,0,0,1,84.15,95.2822,24.3124,24.3124,0,0,1,89.5405,88.15,25.428,25.428,0,0,1,98.2,82.998a31.1668,31.1668,0,0,1,10.708-1.832,33.7723,33.7723,0,0,1,10.7813,1.6358,25.6284,25.6284,0,0,1,8.6338,4.8584,22.0368,22.0368,0,0,1,5.0986,6.7871A21.1984,21.1984,0,0,1,135.397,103.92Zm-14.9414,1.416a16.3663,16.3663,0,0,0-.83-5.249,12.6467,12.6467,0,0,0-2.6367-4.4678,9.6188,9.6188,0,0,0-3.7842-2.539,12.6989,12.6989,0,0,0-4.4678-.83,11.6982,11.6982,0,0,0-4.6875.9268,11.928,11.928,0,0,0-6.1279,6.8291,14.7983,14.7983,0,0,0-.8545,4.9277,12.2724,12.2724,0,0,0,1.9043,6.8047,14.4061,14.4061,0,0,0,5.0781,4.7568,25.0377,25.0377,0,0,0,4.9072,2.292,40.9512,40.9512,0,0,0,5.2,1.3662,27.9033,27.9033,0,0,0,4.59-6.751A18.51,18.51,0,0,0,120.4556,105.3359Z"/><path class="cls-1" d="M196.53,114.7109q0,8.4479-7.3906,13.77T170.48,133.8027q-11.7583,0-19.001-5.1269t-7.2441-13.33a14.4933,14.4933,0,0,1,2.7832-8.6914,35.0906,35.0906,0,0,1,8.2031-7.7148v-.0977a21.257,21.257,0,0,1-6.6162-5.9082,14.59,14.59,0,0,1-2.3194-8.5449q0-7.4708,6.9512-12.4268t17.2432-4.956q10.9746,0,17.6338,4.6386,6.6576,4.6392,6.6582,12.0606a15.3108,15.3108,0,0,1-2.4375,8.4717,26.2552,26.2552,0,0,1-6.8242,6.958v.0976a22.09,22.09,0,0,1,8.24,6.3233A14.777,14.777,0,0,1,196.53,114.7109Zm-14.9414-.3418a7.36,7.36,0,0,0-1.3916-4.4189,12.6782,12.6782,0,0,0-4.419-3.54q-1.8075-.879-4.6142-1.9288t-5.3467-1.88a20.7736,20.7736,0,0,0-5.0537,5.1757,11.06,11.06,0,0,0-1.88,6.25,8.2232,8.2232,0,0,0,3.2715,6.5918,12.1311,12.1311,0,0,0,7.959,2.6856q5.37,0,8.4228-2.3193A7.8158,7.8158,0,0,0,181.5884,114.3691Zm-1.27-28.32a8.097,8.097,0,0,0-2.6542-6.3965,10.1723,10.1723,0,0,0-6.9893-2.3437,11.0864,11.0864,0,0,0-6.8438,2.1,6.857,6.857,0,0,0-2.8,5.8106,5.9823,5.9823,0,0,0,1.39,4.0527,11.5889,11.5889,0,0,0,3.8281,2.7832,34.4521,34.4521,0,0,0,3.9492,1.7334q2.3892.9038,4.7784,1.6357a18.1373,18.1373,0,0,0,3.8847-4.3213A9.3229,9.3229,0,0,0,180.3188,86.0488Z"/><path class="cls-1" d="M261.0806,107.4844A27.3618,27.3618,0,0,1,258.9321,118.3a23.5438,23.5438,0,0,1-6.3965,8.7158,25.4587,25.4587,0,0,1-8.7158,5.0293,34.3773,34.3773,0,0,1-21.6308.0244,26.2019,26.2019,0,0,1-8.8135-5.0048,25.6644,25.6644,0,0,1-6.3477-8.74,28.55,28.55,0,0,1-.2441-21.3623,24.5968,24.5968,0,0,1,5.8594-8.374,25.3854,25.3854,0,0,1,8.96-5.4932,32.5344,32.5344,0,0,1,11.3037-1.9287,33.1681,33.1681,0,0,1,11.1817,1.8067,26.0051,26.0051,0,0,1,8.8867,5.2734,24.8035,24.8035,0,0,1,6.0547,8.52A27.0646,27.0646,0,0,1,261.0806,107.4844Zm-14.9414.2929a20.3436,20.3436,0,0,0-1.1231-6.7382,13.3962,13.3962,0,0,0-3.3691-5.3711,11.5847,11.5847,0,0,0-3.7842-2.5147,12.6965,12.6965,0,0,0-4.9072-.9033,12.3751,12.3751,0,0,0-5.127.9521,13.157,13.157,0,0,0-3.76,2.5635,12.897,12.897,0,0,0-3.1494,5.127,19.2263,19.2263,0,0,0-1.1474,6.4941,19.9271,19.9271,0,0,0,1.0742,6.6651,13.3175,13.3175,0,0,0,3.5156,5.3466,11.7765,11.7765,0,0,0,3.7354,2.4414,12.476,12.476,0,0,0,4.81.879,12.8535,12.8535,0,0,0,4.8584-.879,12.0731,12.0731,0,0,0,3.7842-2.3925,14.1532,14.1532,0,0,0,3.3936-5.1514A17.7125,17.7125,0,0,0,246.1392,107.7773Z"/><line class="cls-2" x1="40.5714" y1="168.397" x2="326.581" y2="168.397"/><circle class="cls-2" cx="326.581" cy="168.397" r="2.5"/></g></svg>