<svg xmlns="http://www.w3.org/2000/svg" viewBox="0 0 216 213"><defs><style>.cls-1{fill:gray;fill-rule:evenodd;}</style></defs><title>website-pic</title><path class="cls-1" d="M190.2045,33.6768h-5.6033v-5.6a16.7956,16.7956,0,0,0-33.5911,0v5.6H128.6112v-5.6a16.797,16.797,0,0,0-33.5939,0v5.6H71.8706v-5.6a16.797,16.797,0,0,0-33.5939,0v5.6H32.6734A16.8158,16.8158,0,0,0,15.8778,50.4752V185.6046a16.82,16.82,0,0,0,16.7956,16.7985H190.2045A16.825,16.825,0,0,0,207,185.6046V50.4752a16.8212,16.8212,0,0,0-16.7955-16.7984Zm-27.9992-5.6a5.6,5.6,0,0,1,11.2008,0V50.4752a5.6,5.6,0,0,1-11.2008,0V28.0764Zm-55.9929,0a5.6019,5.6019,0,0,1,11.2038,0V50.4752a5.6019,5.6019,0,0,1-11.2038,0V28.0764Zm-56.7407,0a5.6019,5.6019,0,0,1,11.2038,0V50.4752a5.6019,5.6019,0,0,1-11.2038,0V28.0764ZM195.7962,185.6046a5.6021,5.6021,0,0,1-5.5917,5.5947H32.6734a5.6021,5.6021,0,0,1-5.5918-5.5947V90.42H195.7962v95.1842Zm0-106.388H27.0816V50.4752a5.6039,5.6039,0,0,1,5.5918-5.6032h5.6033v5.6032a16.797,16.797,0,0,0,33.5939,0V44.872H95.0173v5.6032a16.797,16.797,0,0,0,33.5939,0V44.872H151.01v5.6032a16.7956,16.7956,0,1,0,33.5911,0V44.872h5.6033a5.6039,5.6039,0,0,1,5.5917,5.6032Z"/><path class="cls-1" d="M179.0008,101.6155H43.8771a5.5941,5.5941,0,0,0-5.6,5.6v67.1879a5.6,5.6,0,0,0,5.6,5.6H179.0008a5.6052,5.6052,0,0,0,5.6-5.6V107.2159a5.6,5.6,0,0,0-5.6-5.6ZM71.8706,168.809H49.4717V146.41H71.8706V168.809Zm0-33.6024H49.4717V112.8192H71.8706v22.3874Zm34.3418,33.6024H83.0715V146.41h23.1409V168.809Zm0-33.6024H83.0715V112.8192h23.1409v22.3874Zm33.594,33.6024h-22.39V146.41h22.39V168.809Zm0-33.6024h-22.39V112.8192h22.39v22.3874Zm33.6,33.6024H151.01V146.41h22.396V168.809Zm0-33.6024H151.01V112.8192h22.396Z"/></svg>