<svg id="圖層_1" data-name="圖層 1" xmlns="http://www.w3.org/2000/svg" width="216" height="213" viewBox="0 0 216 213"><defs><style>.cls-1{fill:gray;fill-rule:evenodd;}</style></defs><title>website-pic</title><path class="cls-1" d="M206.6028,93.8565a16.7917,16.7917,0,0,0-5.86-11.5571l-16.66-14.2855V27.4305a5.65,5.65,0,0,0-5.6452-5.6452H155.86a5.5812,5.5812,0,0,0-5.564,5.6452v11.563L121.7364,14.65a16.8334,16.8334,0,0,0-22.0183-.0174L19.9287,82.2994a16.92,16.92,0,0,0-1.8325,23.8768,17.0992,17.0992,0,0,0,18.5738,4.932v86.3856a5.5819,5.5819,0,0,0,5.5641,5.6481H178.4377a5.6506,5.6506,0,0,0,5.6452-5.6481v-86.38a16.9248,16.9248,0,0,0,22.52-17.2574ZM161.505,33.07h11.36V58.3414L161.505,48.66V33.07ZM133.3661,191.8486H87.39v-45.22h45.9763v45.22Zm39.4989,0h-28.29V141.0564a5.65,5.65,0,0,0-5.6452-5.6452H81.7417a5.5885,5.5885,0,0,0-5.5727,5.6452v50.7922h-28.29v-88.853l62.81-53.283,62.1754,53.225v88.911ZM194.0106,98.82a5.6412,5.6412,0,0,1-7.9619.6147L114.3863,38.0076a5.63,5.63,0,0,0-7.3209-.0144c-1.531,1.29-72.1379,61.1866-72.4424,61.4419A5.6442,5.6442,0,0,1,27.25,90.8875l79.7894-67.664a5.61,5.61,0,0,1,7.3471,0l79.01,67.65A5.636,5.636,0,0,1,194.0106,98.82Z"/><path class="cls-1" d="M127.6454,78.2228H93.0263a5.5744,5.5744,0,0,0-5.564,5.6394v33.86a5.5763,5.5763,0,0,0,5.564,5.648h34.6191a5.645,5.645,0,0,0,5.6453-5.648v-33.86a5.6432,5.6432,0,0,0-5.6453-5.6394Zm-5.5726,33.8625H98.6744V89.5074h23.3984Z"/><path class="cls-1" d="M121.9974,163.6343a5.6423,5.6423,0,1,1-5.6452-5.6482A5.637,5.637,0,0,1,121.9974,163.6343Z"/></svg>