<svg id="圖層_1" data-name="圖層 1" xmlns="http://www.w3.org/2000/svg" width="216" height="213" viewBox="0 0 216 213"><defs><style>.cls-1{fill:#fff;fill-rule:evenodd;}</style></defs><title>to_alan_website_size</title><path class="cls-1" d="M205.7579,104.7243l-29.3864-58.77h2.1209a5.5672,5.5672,0,1,0,0-11.1343h-6.938c-4.827-13.2194-18.3992-23.02-32.7852-23.02a33.4355,33.4355,0,0,0-16.5627,4.389,16.6846,16.6846,0,0,0-22.5561,0A33.4842,33.4842,0,0,0,83.0845,11.8c-14.2651,0-27.3177,9.6245-32.07,23.02H44.0933a5.5672,5.5672,0,0,0,0,11.1343H46.224l-29.3832,58.77a5.7658,5.7658,0,0,0-.5948,2.4542v.0654c0,.0556.01.1014.01.1569a39.0278,39.0278,0,0,0,38.9815,38.7985c19.8176,0,38.2037-15.128,38.9815-38.8182a5.6464,5.6464,0,0,0-.5915-2.6568L61.1394,39.729C63.9369,30.18,73.2378,22.9343,83.0845,22.9343a22.3294,22.3294,0,0,1,11.3207,3.0949,16.6812,16.6812,0,0,0,10.9316,18.213c.0294.7778.02-.1668.02,12.8467H99.7877a5.5671,5.5671,0,1,0,0,11.1342h5.5687v77.9762H88.6533a5.5663,5.5663,0,0,0-5.5688,5.5655v16.7031h-16.71a27.8849,27.8849,0,0,0-27.8472,27.8472,5.5664,5.5664,0,0,0,5.5656,5.5688H177.7507a5.5755,5.5755,0,0,0,5.5786-5.5688,27.8851,27.8851,0,0,0-27.8473-27.8472H138.7692V151.7648a5.5636,5.5636,0,0,0-5.5655-5.5655H116.5005V68.2231h5.5655a5.5671,5.5671,0,1,0,0-11.1342h-5.5655c0-13.0135-.01-12.0689.0163-12.8467a16.682,16.682,0,0,0,10.9317-18.213,22.3466,22.3466,0,0,1,11.3207-3.0949c10.0623,0,19.8535,7.3924,22.6869,16.8044l-32.4879,64.9856a.8725.8725,0,0,0-.0556.1111c-.0555.111-.1013.2221-.147.3333a5.7422,5.7422,0,0,0-.3889,2.2124v.02a38.9819,38.9819,0,0,0,77.963,0v-.02a5.7562,5.7562,0,0,0-.5818-2.6568ZM55.2373,135.0551a27.9,27.9,0,0,1-27.2916-22.2718H82.5191a27.8892,27.8892,0,0,1-27.2818,22.2718ZM79.64,101.6391H30.8282L55.2373,52.8372,79.64,101.6391Zm75.842,77.9729a16.7306,16.7306,0,0,1,15.7489,11.1343H50.6261A16.7209,16.7209,0,0,1,66.3749,179.612Zm-27.8472-22.2784v11.1343H94.2188V157.3336Zm-16.592-123.265-.3039-.01a5.4361,5.4361,0,1,1,.3039.01Zm56.3154,18.7686,24.4092,48.8019H142.9587l24.4-48.8019Zm0,82.2179a27.8893,27.8893,0,0,1-27.2819-22.2718H194.65A27.9,27.9,0,0,1,167.3582,135.0551Z"/></svg>