<svg id="圖層_1" data-name="圖層 1" xmlns="http://www.w3.org/2000/svg" xmlns:xlink="http://www.w3.org/1999/xlink" width="216" height="213" viewBox="0 0 216 213"><defs><style>.cls-1{fill:url(#Degradado_sin_nombre_7);}.cls-2{fill:#fff;}</style><linearGradient id="Degradado_sin_nombre_7" x1="-2769.9754" y1="-3886.1251" x2="-2606.2015" y2="-3722.3512" gradientTransform="translate(2796.3911 3914.541)" gradientUnits="userSpaceOnUse"><stop offset="0" stop-color="red"/><stop offset="1" stop-color="#930000"/></linearGradient></defs><title>website-pic</title><rect class="cls-1" x="12.6052" y="14.6054" width="191.3946" height="191.3946" rx="47.0134" transform="translate(218.6051 2.0002) rotate(90)"/><path class="cls-2" d="M159.5374,96.3871a22.98,22.98,0,0,0-22.98-22.9795H77.7969a22.98,22.98,0,0,0-22.98,22.98v27.3452a22.9794,22.9794,0,0,0,22.98,22.98h58.7609a22.9794,22.9794,0,0,0,22.98-22.98ZM124.98,112.109,98.63,125.1453c-1.0328.559-4.5425-.1891-4.5425-1.3639V97.022c0-1.19,3.5385-1.9367,4.572-1.3476l25.2232,13.723C124.94,110,126.05,111.53,124.98,112.109Z"/></svg>