<svg id="圖層_1" data-name="圖層 1" xmlns="http://www.w3.org/2000/svg" width="216" height="213" viewBox="0 0 216 213"><defs><style>.cls-1{fill:gray;fill-rule:evenodd;}</style></defs><title>website-pic</title><path class="cls-1" d="M61.2758,83.6954H38.1277A5.787,5.787,0,0,0,32.34,89.4831a5.724,5.724,0,0,0,5.7878,5.7134H61.2758a5.7226,5.7226,0,0,0,5.7819-5.7134A5.7857,5.7857,0,0,0,61.2758,83.6954Z"/><path class="cls-1" d="M61.2758,106.8405H38.1277a5.7878,5.7878,0,0,0-5.7878,5.7908,5.7167,5.7167,0,0,0,5.7878,5.7046H61.2758a5.7152,5.7152,0,0,0,5.7819-5.7046A5.7864,5.7864,0,0,0,61.2758,106.8405Z"/><path class="cls-1" d="M183.5626,72.7053V31.617a17.3588,17.3588,0,0,0-34.4978-2.7526l-26.46,19.1024a.2133.2133,0,0,1-.0594.0416A64.0461,64.0461,0,0,1,84.6084,60.5472H38.1277A28.97,28.97,0,0,0,9.1917,89.4831v23.1482a28.9624,28.9624,0,0,0,28.936,28.927l5.7818-.0743v40.58a17.3634,17.3634,0,0,0,34.7268,0V164.7065h5.7789a17.3763,17.3763,0,0,0,17.3574-17.36v-3.3442A63.8242,63.8242,0,0,1,122.6139,154.29a.2358.2358,0,0,0,.0565.0507l26.46,19.3045a17.36,17.36,0,0,0,34.4324-3.1511V129.409a28.9375,28.9375,0,0,0,0-56.7037ZM67.0577,182.064a5.7848,5.7848,0,1,1-11.57,0v-40.58h11.57v40.58Zm-28.93-52.0753A17.3756,17.3756,0,0,1,20.77,112.6313V89.4831A17.442,17.442,0,0,1,38.1277,72.0483H78.6363v57.94Zm52.0782,17.3574a5.7959,5.7959,0,0,1-5.7907,5.7908H78.6363V141.484a104.5693,104.5693,0,0,1,11.57.3538v5.5083Zm58.7132,11.7659-19.3966-14.0994a75.77,75.77,0,0,0-39.3166-14.795V71.9057a75.7953,75.7953,0,0,0,39.2066-14.5779l19.5066-14.031V159.112Zm23.1482,11.3823a5.8637,5.8637,0,0,1-5.865,5.7908,5.7935,5.7935,0,0,1-5.7879-5.7908V31.617a5.7928,5.7928,0,0,1,5.7879-5.7877,5.8553,5.8553,0,0,1,5.8561,5.7877l.0089,138.8773Zm11.4953-53.077v-32.72a17.3518,17.3518,0,0,1,0,32.72Z"/></svg>