<svg id="圖層_1" data-name="圖層 1" xmlns="http://www.w3.org/2000/svg" xmlns:xlink="http://www.w3.org/1999/xlink" width="216" height="213" viewBox="0 0 216 213"><defs><style>.cls-1{fill:url(#linear-gradient);}.cls-2{fill:#fff;}</style><linearGradient id="linear-gradient" x1="-2314.6666" y1="-3454.9117" x2="-2152.6856" y2="-3292.9307" gradientTransform="translate(-3266.4157 2343.9784) rotate(90)" gradientUnits="userSpaceOnUse"><stop offset="0" stop-color="#0573f5"/><stop offset="0.1651" stop-color="#086aed"/><stop offset="0.4338" stop-color="#1152d6"/><stop offset="0.7705" stop-color="#202bb2"/><stop offset="1" stop-color="#2b0c95"/></linearGradient></defs><title>website-pic</title><path class="cls-1" d="M11.8083,155.9345V64.6706A50.2125,50.2125,0,0,1,61.8738,14.6051h91.2639a50.2123,50.2123,0,0,1,50.0649,50.0655l.0006,91.2639A50.2141,50.2141,0,0,1,153.1377,206H122.4585l-16.0654-3.9153L92.553,206l-30.6792-.0007A50.2123,50.2123,0,0,1,11.8083,155.9345Z"/><path class="cls-2" d="M144.7568,141.108l4.2425-27.6625H122.4585V95.4944c0-7.568,3.7071-14.9449,15.5949-14.9449h12.0677v-23.55A147.1524,147.1524,0,0,0,128.6992,55.13C106.84,55.13,92.553,68.3784,92.553,92.362v21.0835H68.2553V141.108H92.553V206h29.9055V141.108Z"/></svg>