<svg id="圖層_1" data-name="圖層 1" xmlns="http://www.w3.org/2000/svg" xmlns:xlink="http://www.w3.org/1999/xlink" width="216" height="213" viewBox="0 0 216 213"><defs><style>.cls-1{fill:url(#Degradado_sin_nombre_3);}.cls-2{fill:#fff;}</style><linearGradient id="Degradado_sin_nombre_3" x1="-2538.396" y1="-3699.935" x2="-2288.1293" y2="-3449.6683" gradientTransform="translate(2550.8275 3711.5046)" gradientUnits="userSpaceOnUse"><stop offset="0.0011" stop-color="#ffd879"/><stop offset="0.2094" stop-color="#ffb21f"/><stop offset="0.3765" stop-color="#ff4e74"/><stop offset="0.5238" stop-color="#ef2c8b"/><stop offset="0.7394" stop-color="#9b2ccb"/><stop offset="1" stop-color="#5f47e7"/></linearGradient></defs><title>website-pic</title><rect class="cls-1" x="15.5107" y="14.6054" width="191.3942" height="191.3942" rx="47.0134" transform="translate(221.5096 -0.9061) rotate(89.9996)"/><path class="cls-2" d="M140.9131,74.2342a6.5781,6.5781,0,1,0,6.5784,6.5778A6.5781,6.5781,0,0,0,140.9131,74.2342Z"/><path class="cls-2" d="M111.6686,82.67a27.6325,27.6325,0,1,0,27.6325,27.6324A27.664,27.664,0,0,0,111.6686,82.67Zm0,45.3328a17.7,17.7,0,1,1,17.7-17.7A17.72,17.72,0,0,1,111.6686,128.0029Z"/><path class="cls-2" d="M133.6056,166.4052H88.8082a33.741,33.741,0,0,1-33.703-33.703V87.9028A33.7406,33.7406,0,0,1,88.8082,54.2h44.7974a33.7423,33.7423,0,0,1,33.7049,33.7029v44.7994A33.7427,33.7427,0,0,1,133.6056,166.4052ZM88.8082,64.7563A23.1719,23.1719,0,0,0,65.661,87.9028v44.7994a23.1725,23.1725,0,0,0,23.1472,23.1472h44.7974a23.1736,23.1736,0,0,0,23.1484-23.1472V87.9028a23.173,23.173,0,0,0-23.1484-23.1465Z"/></svg>