<svg id="圖層_1" data-name="圖層 1" xmlns="http://www.w3.org/2000/svg" width="216" height="213" viewBox="0 0 216 213"><defs><style>.cls-1{fill:#fff;fill-rule:evenodd;}</style></defs><title>to_alan_website_size</title><path class="cls-1" d="M183.7648,56.3384H155.91V28.484A16.7267,16.7267,0,0,0,139.199,11.7755H27.0518A16.7268,16.7268,0,0,0,10.34,28.484V185.197a16.7329,16.7329,0,0,0,16.7115,16.7115h156.713a16.7378,16.7378,0,0,0,16.7085-16.7115V73.05a16.7324,16.7324,0,0,0-16.7085-16.7115ZM21.4861,28.484a5.5757,5.5757,0,0,1,5.5657-5.5657H139.199a5.5775,5.5775,0,0,1,5.5742,5.5657v5.5715H21.4861V28.484Zm5.5657,162.2787a5.5737,5.5737,0,0,1-5.5657-5.5657V168.4883h78.7213V185.197a16.6248,16.6248,0,0,0,.9586,5.5657ZM100.2074,73.05v84.2928H21.4861V45.1927H144.7732V56.3384H116.9189A16.7275,16.7275,0,0,0,100.2074,73.05ZM189.3305,185.197a5.5757,5.5757,0,0,1-5.5657,5.5657H116.9189a5.5738,5.5738,0,0,1-5.5658-5.5657v-5.5714h77.9774v5.5714Zm0-16.7087H111.3531v-78.73h77.9774v78.73Zm0-89.867H111.3531V73.05a5.5757,5.5757,0,0,1,5.5658-5.5743h66.8459a5.5775,5.5775,0,0,1,5.5657,5.5743Z"/><path class="cls-1" d="M82.752,56.3384H38.1947a5.566,5.566,0,0,0-5.5715,5.5743V95.33a5.5641,5.5641,0,0,0,5.5715,5.5657H82.752A5.5664,5.5664,0,0,0,88.3262,95.33V61.9127a5.5683,5.5683,0,0,0-5.5742-5.5743Zm-5.5629,33.42H43.76V67.4756H77.1891Z"/><path class="cls-1" d="M60.4776,112.0414H38.1947a5.5686,5.5686,0,1,0,0,11.1372H60.4776a5.5686,5.5686,0,0,0,0-11.1372Z"/><path class="cls-1" d="M172.619,100.8957H128.0617a5.5729,5.5729,0,0,0,0,11.1457H172.619a5.5729,5.5729,0,1,0,0-11.1457Z"/><path class="cls-1" d="M150.3361,123.1786H128.0617a5.5729,5.5729,0,0,0,0,11.1457h22.2744a5.5729,5.5729,0,1,0,0-11.1457Z"/></svg>