<svg id="圖層_1" data-name="圖層 1" xmlns="http://www.w3.org/2000/svg" width="216" height="213" viewBox="0 0 216 213"><defs><style>.cls-1{fill:gray;}</style></defs><title>website-pic</title><path class="cls-1" d="M25.7607,26.085H209.8022a0,0,0,0,1,0,0V59.3307a0,0,0,0,1,0,0H25.7607A10.8614,10.8614,0,0,1,14.8994,48.4693V36.9464A10.8614,10.8614,0,0,1,25.7607,26.085Z" transform="translate(224.7016 85.4157) rotate(180)"/><path class="cls-1" d="M25.7607,92.3133H167.7945a0,0,0,0,1,0,0v33.2457a0,0,0,0,1,0,0H25.7607a10.8614,10.8614,0,0,1-10.8614-10.8614v-11.523A10.8614,10.8614,0,0,1,25.7607,92.3133Z" transform="translate(182.6938 217.8722) rotate(-180)"/><path class="cls-1" d="M25.7607,154.3532H126.2349a0,0,0,0,1,0,0v33.2457a0,0,0,0,1,0,0H25.7607a10.8614,10.8614,0,0,1-10.8614-10.8614v-11.523A10.8614,10.8614,0,0,1,25.7607,154.3532Z" transform="translate(141.1342 341.9522) rotate(-180)"/></svg>